<svg width="100%" height="100%" viewBox="0 0 52 56" fill="currentColor" xmlns="http://www.w3.org/2000/svg"><path fill-rule="evenodd" clip-rule="evenodd" d="M7.15 28.3078C7.15 33.5412 9.32509 38.2715 12.8289 41.6608C13.8171 42.6166 14.3 43.9894 14.3 45.3641C14.3 47.3774 11.8253 49.9865 10.2203 48.7712C4.0075 44.0666 -1.35288e-06 36.6506 -9.84601e-07 28.3078C-5.7352e-07 18.9954 4.99308 10.8379 12.4729 6.31687C13.832 5.4954 15.5257 6.39373 16.29 7.7858C17.2031 9.44895 16.8028 11.9025 15.2408 12.9795C10.3505 16.3516 7.15 21.9596 7.15 28.3078ZM35.7175 7.78922C34.8038 9.45206 35.2032 11.9058 36.7648 12.9834C41.652 16.3559 44.85 21.962 44.85 28.3078C44.85 34.7311 41.5734 40.3966 36.5849 43.7548C36.0537 44.1124 35.75 44.7238 35.75 45.3642C35.75 47.69 38.4223 51.0478 40.3656 49.7699C47.3777 45.1586 52 37.2677 52 28.3078C52 18.9988 47.0105 10.8437 39.5351 6.32172C38.1763 5.49976 36.4823 6.39742 35.7175 7.78922Z" fill="#currentColor"/><path d="M26.0047 56C23.4918 56 21.4547 53.9829 21.4547 51.4946C21.4547 49.0063 23.4918 46.9891 26.0047 46.9891C28.5176 46.9891 30.5547 49.0063 30.5547 51.4946C30.5547 53.9829 28.5176 56 26.0047 56Z" fill="#currentColor"/><path d="M26.0047 9.01151C23.4918 9.01151 21.4547 6.99435 21.4547 4.50606C21.4547 2.01777 23.4918 0.000610046 26.0047 0.000610155C28.5176 0.000610263 30.5547 2.01777 30.5547 4.50606C30.5547 6.99435 28.5176 9.01151 26.0047 9.01151Z" fill="#currentColor"/><path d="M26 37.969C20.6152 37.969 16.25 33.6465 16.25 28.3144C16.25 22.9824 20.6152 18.6599 26 18.6599C31.3848 18.6599 35.75 22.9824 35.75 28.3144C35.75 33.6465 31.3848 37.969 26 37.969Z" fill="#currentColor"/></svg>